<svg xmlns="http://www.w3.org/2000/svg" width="2in" height="2in" fill-rule="evenodd" clip-rule="evenodd" image-rendering="optimizeQuality" shape-rendering="geometricPrecision" text-rendering="geometricPrecision" viewBox="0 0 2000 2000" id="light-bulb">
  <path fill="#1a1a1a" d="M1058 1853l-133 0c-66,0 -119,-53 -119,-119 0,-9 7,-16 16,-16l339 0c9,0 16,7 16,16 0,66 -53,119 -119,119z"></path>
  <path fill="#313131" d="M1190 1751l-397 0c-30,0 -54,-25 -54,-55l0 -26c0,-30 24,-54 54,-54l397 0c30,0 54,24 54,54l0 26c0,30 -24,55 -54,55z"></path>
  <path fill="#ff9f00" d="M1238 1547l-472 0c-9,0 -17,-8 -17,-17l0 -1c0,-114 -41,-221 -116,-303 -90,-98 -137,-225 -132,-359 5,-129 59,-249 153,-340 93,-90 215,-140 344,-141l4 0c276,0 501,225 501,501 0,125 -46,244 -129,336 -77,85 -119,193 -119,304l0 3c0,9 -8,17 -17,17z"></path>
  <path fill="#ff8100" d="M993 323c-9 0-16-8-16-17l0-143c0-9 7-16 16-16 10 0 17 7 17 16l0 143c0 9-7 17-17 17zM1292 392c-3 0-5-1-8-2-8-5-11-15-6-23l69-125c4-8 14-11 22-6 8 4 11 14 7 22l-69 125c-3 6-9 9-15 9zM1506 612c-6 0-11-2-14-8-5-8-2-18 6-23l123-72c8-5 18-2 22 6 5 8 2 18-6 23l-123 72c-2 2-5 2-8 2zM1721 901c0 0 0 0-1 0l-142-4c-10 0-17-8-17-17 1-9 8-16 18-16l142 4c9 0 17 7 16 17 0 9-7 16-16 16zM1623 1264c-3 0-6-1-9-3l-118-80c-8-5-10-15-5-23 5-7 16-9 23-4l119 80c7 5 9 15 4 23-3 5-8 7-14 7zM708 395c-6 0-12-3-15-8l-69-125c-4-8-1-19 7-23 8-4 18-2 22 6l69 125c5 8 2 19-6 23-3 1-5 2-8 2zM494 616c-3 0-6-1-8-2l-123-73c-8-4-11-15-6-23 4-8 14-10 22-6l123 73c8 4 11 15 6 23-3 5-8 8-14 8zM279 904c-9 0-16-7-16-16-1-9 7-17 16-17l142-4c10 0 17 7 18 16 0 10-7 17-17 18l-142 3c-1 0-1 0-1 0zM377 1268c-6 0-11-3-14-8-5-7-3-18 4-23l119-80c7-5 18-3 23 5 5 7 3 18-5 23l-118 80c-3 2-6 3-9 3z"></path>
  <path fill="#fff" d="M875 1547c-10 0-17-8-17-17l0-534c0-9 7-16 17-16 9 0 16 7 16 16l0 534c0 9-7 17-16 17zM1129 1547c-9 0-16-8-16-17l0-534c0-9 7-16 16-16 10 0 17 7 17 16l0 534c0 9-7 17-17 17z"></path>
  <path fill="#fff" d="M1129 1112l-254 0c-10,0 -17,-7 -17,-16 0,-9 7,-17 17,-17l254 0c10,0 17,8 17,17 0,9 -7,16 -17,16z"></path>
  <path fill="#1a1a1a" d="M1254 1649l-525 0c-30,0 -55,-25 -55,-55l0 -26c0,-30 25,-55 55,-55l525 0c30,0 55,25 55,55l0 26c0,30 -25,55 -55,55z"></path>
</svg>
